<svg xmlns="http://www.w3.org/2000/svg" xmlns:xlink="http://www.w3.org/1999/xlink" aria-hidden="true" role="img" class="iconify iconify--logos" width="32" height="32" preserveAspectRatio="xMidYMid meet" viewBox="0 0 32 32">
    <path fill="#fd9222" d="M13.824 2.413l7.528 7.535 0.080-0.080c0.158-0.154 0.369-0.242 0.59-0.244s0.434 0.080 0.595 0.231l0.873 0.873c0.305 0.305 0.315 0.77 0.083 1.094l-0.004 0.007-0.143 0.192 6.161 6.159c0.55 0.55 0.55 1.43 0 1.98l-9.432 9.428c-0.55 0.55-1.43 0.55-1.98 0l-4.448-4.446c-0.074 0.093-0.167 0.169-0.272 0.224s-0.221 0.086-0.34 0.093c-0.119 0.007-0.237-0.012-0.348-0.054s-0.212-0.108-0.296-0.192l-2.6-2.6c-0.154-0.158-0.242-0.369-0.244-0.589s0.080-0.434 0.231-0.595l0.006-0.007 0.077-0.076-7.528-7.526c-0.55-0.55-0.55-1.43 0-1.98l9.432-9.428c0.55-0.55 1.43-0.55 1.98 0zM20.407 10.891l-1.756-1.755c-0.055-0.057-0.121-0.102-0.194-0.133s-0.152-0.047-0.231-0.047c-0.079 0-0.158 0.016-0.231 0.047s-0.139 0.076-0.194 0.133l-3.581 3.579c-0.057 0.056-0.102 0.123-0.132 0.197s-0.047 0.153-0.047 0.233 0.016 0.159 0.047 0.233c0.031 0.074 0.076 0.141 0.132 0.197l1.749 1.749 0.61-0.61-1.565-1.565 3.211-3.219 1.569 1.574zM15.33 15.963l-1.754-1.754c-0.055-0.057-0.121-0.102-0.194-0.133s-0.152-0.047-0.231-0.047c-0.079 0-0.158 0.016-0.231 0.047s-0.139 0.076-0.194 0.133l-3.591 3.589c-0.24 0.23-0.24 0.61 0 0.85l1.752 1.752 0.616-0.616-1.57-1.564 3.221-3.209 1.564 1.563zM8.823 8.192l3.581 3.579c0.24 0.24 0.62 0.24 0.85-0.010l3.581-3.579c0.057-0.054 0.102-0.119 0.133-0.191s0.047-0.15 0.047-0.228h0.010c0-0.15-0.060-0.31-0.18-0.43l-3.581-3.579c-0.056-0.057-0.123-0.102-0.197-0.133s-0.153-0.047-0.233-0.047c-0.080 0-0.159 0.016-0.233 0.047s-0.141 0.076-0.197 0.133l-3.581 3.589c-0.24 0.23-0.24 0.61 0 0.85zM3.752 13.261l3.581 3.579c0.24 0.24 0.62 0.24 0.85 0l3.581-3.579c0.058-0.055 0.104-0.122 0.135-0.196s0.046-0.154 0.045-0.234h0.010c0-0.16-0.060-0.31-0.18-0.43l-3.581-3.579c-0.055-0.057-0.121-0.102-0.194-0.133s-0.152-0.047-0.231-0.047c-0.079 0-0.158 0.016-0.231 0.047s-0.139 0.076-0.194 0.133l-3.591 3.589c-0.24 0.23-0.24 0.61 0 0.85zM10.687 22.013l2.362 2.363 9.638-13.038-0.655-0.655z"></path>
    <path fill="#fd9222" d="M13.824 2.413l7.528 7.535 0.080-0.080c0.158-0.154 0.369-0.242 0.59-0.244s0.434 0.080 0.595 0.231l0.873 0.873c0.305 0.305 0.315 0.77 0.083 1.094l-0.004 0.007-0.143 0.192 6.161 6.159c0.55 0.55 0.55 1.43 0 1.98l-9.432 9.428c-0.55 0.55-1.43 0.55-1.98 0l-4.448-4.446c-0.074 0.093-0.167 0.169-0.272 0.224s-0.221 0.086-0.34 0.093c-0.119 0.007-0.237-0.012-0.348-0.054s-0.212-0.108-0.296-0.192l-2.6-2.6c-0.154-0.158-0.242-0.369-0.244-0.589s0.080-0.434 0.231-0.595l0.006-0.007 0.077-0.076-7.528-7.526c-0.55-0.55-0.55-1.43 0-1.98l9.432-9.428c0.55-0.55 1.43-0.55 1.98 0zM20.407 10.891l-1.756-1.755c-0.055-0.057-0.121-0.102-0.194-0.133s-0.152-0.047-0.231-0.047c-0.079 0-0.158 0.016-0.231 0.047s-0.139 0.076-0.194 0.133l-3.581 3.579c-0.057 0.056-0.102 0.123-0.132 0.197s-0.047 0.153-0.047 0.233 0.016 0.159 0.047 0.233c0.031 0.074 0.076 0.141 0.132 0.197l1.749 1.749 0.61-0.61-1.565-1.565 3.211-3.219 1.569 1.574zM15.33 15.963l-1.754-1.754c-0.055-0.057-0.121-0.102-0.194-0.133s-0.152-0.047-0.231-0.047c-0.079 0-0.158 0.016-0.231 0.047s-0.139 0.076-0.194 0.133l-3.591 3.589c-0.24 0.23-0.24 0.61 0 0.85l1.752 1.752 0.616-0.616-1.57-1.564 3.221-3.209 1.564 1.563zM8.823 8.192l3.581 3.579c0.24 0.24 0.62 0.24 0.85-0.010l3.581-3.579c0.057-0.054 0.102-0.119 0.133-0.191s0.047-0.15 0.047-0.228h0.010c0-0.15-0.060-0.31-0.18-0.43l-3.581-3.579c-0.056-0.057-0.123-0.102-0.197-0.133s-0.153-0.047-0.233-0.047c-0.080 0-0.159 0.016-0.233 0.047s-0.141 0.076-0.197 0.133l-3.581 3.589c-0.24 0.23-0.24 0.61 0 0.85zM3.752 13.261l3.581 3.579c0.24 0.24 0.62 0.24 0.85 0l3.581-3.579c0.058-0.055 0.104-0.122 0.135-0.196s0.046-0.154 0.045-0.234h0.010c0-0.16-0.060-0.31-0.18-0.43l-3.581-3.579c-0.055-0.057-0.121-0.102-0.194-0.133s-0.152-0.047-0.231-0.047c-0.079 0-0.158 0.016-0.231 0.047s-0.139 0.076-0.194 0.133l-3.591 3.589c-0.24 0.23-0.24 0.61 0 0.85zM10.687 22.013l2.362 2.363 9.638-13.038-0.655-0.655z"></path>
</svg>